<svg width="248" height="190" viewBox="0 0 248 190" fill="none" xmlns="http://www.w3.org/2000/svg">
<rect x="23.5918" width="205.908" height="170" fill="white"/>
<path fill-rule="evenodd" clip-rule="evenodd" d="M204.61 61.75C208.427 61.75 211.521 64.7273 211.521 68.4C211.521 72.0727 208.427 75.05 204.61 75.05H165.122C168.939 75.05 172.033 78.0273 172.033 81.7C172.033 85.3727 168.939 88.35 165.122 88.35H186.841C190.657 88.35 193.751 91.3273 193.751 95C193.751 98.6727 190.657 101.65 186.841 101.65H176.797C171.985 101.65 168.084 104.627 168.084 108.3C168.084 110.748 170.058 112.965 174.007 114.95C177.824 114.95 180.918 117.927 180.918 121.6C180.918 125.273 177.824 128.25 174.007 128.25H92.0695C88.253 128.25 85.1591 125.273 85.1591 121.6C85.1591 117.927 88.253 114.95 92.0695 114.95H53.5686C49.7521 114.95 46.6582 111.973 46.6582 108.3C46.6582 104.627 49.7521 101.65 53.5686 101.65H93.0567C96.8732 101.65 99.9671 98.6727 99.9671 95C99.9671 91.3273 96.8732 88.35 93.0567 88.35H68.3766C64.5601 88.35 61.4662 85.3727 61.4662 81.7C61.4662 78.0273 64.5601 75.05 68.3766 75.05H107.865C104.048 75.05 100.954 72.0727 100.954 68.4C100.954 64.7273 104.048 61.75 107.865 61.75H204.61ZM204.61 88.35C208.427 88.35 211.521 91.3273 211.521 95C211.521 98.6727 208.427 101.65 204.61 101.65C200.794 101.65 197.7 98.6727 197.7 95C197.7 91.3273 200.794 88.35 204.61 88.35Z" fill="#E8EEF1"/>
<path fill-rule="evenodd" clip-rule="evenodd" d="M97.8379 66.655L102.362 66.1788L97.8379 66.655Z" fill="white"/>
<path d="M97.6918 65.381C96.9873 65.4552 96.4816 66.0857 96.5623 66.7893C96.643 67.4929 97.2795 68.0032 97.984 67.929L97.6918 65.381ZM102.508 67.4528C103.212 67.3787 103.718 66.7482 103.637 66.0446C103.557 65.3409 102.92 64.8307 102.216 64.9048L102.508 67.4528ZM97.984 67.929L102.508 67.4528L102.216 64.9048L97.6918 65.381L97.984 67.929Z" fill="#195874"/>
<path d="M159.475 145.269H78.475C73.525 145.269 69.475 140.431 69.475 134.519V112.212C69.475 110.6 70.375 109.525 71.725 109.525C72.85 109.525 73.975 110.6 73.975 112.212V134.519C73.975 137.475 76 139.894 78.475 139.894H159.475C161.95 139.894 163.975 137.475 163.975 134.519V113.287C163.975 111.675 164.875 110.6 166.225 110.6C167.575 110.6 168.475 111.675 168.475 113.287V134.519C168.475 140.431 164.425 145.269 159.475 145.269ZM166 93.4C164.65 93.4 163.75 92.325 163.75 90.7125V68.1375C163.75 65.1812 161.725 62.7625 159.25 62.7625H78.25C75.775 62.7625 73.75 65.1812 73.75 68.1375V89.9062C73.75 91.25 72.625 92.5937 71.5 92.5937C70.15 92.5937 69.25 91.25 69.25 89.9062V68.1375C69.25 62.225 73.3 57.3875 78.25 57.3875H159.25C164.2 57.3875 168.25 62.225 168.25 68.1375V90.7125C168.25 92.0562 167.35 93.4 166 93.4Z" fill="#195874"/>
<path d="M165.998 115.975C159.473 115.975 154.298 109.794 154.298 102C154.298 94.2062 159.473 88.025 165.998 88.025V93.4C161.948 93.4 158.798 97.1625 158.798 102C158.798 106.837 161.948 110.6 165.998 110.6V115.975ZM72.1734 114.9L71.2734 109.525C74.6484 108.719 78.6984 104.956 78.6984 101.194C78.6984 97.1625 76.2234 93.6687 72.8484 92.8625L73.7484 87.4875C79.1484 88.8312 83.1984 94.475 83.1984 101.194C82.9734 108.181 77.5734 113.556 72.1734 114.9Z" fill="#195874"/>
<path d="M72.85 92.8625C72.4 92.8625 71.95 92.5938 71.5 92.5938V87.2187C72.4 87.2187 73.075 87.2187 73.75 87.4875L72.85 92.8625ZM139.9 74.8562C139.9 76.2 139 77.5437 137.65 77.5437C136.3 77.5437 135.4 76.2 135.4 74.8562V61.6875C135.4 60.075 136.3 59 137.65 59C139 59 139.9 60.075 139.9 61.6875V74.8562ZM139.9 97.9687C139.9 99.5812 139 100.656 137.65 100.656C136.3 100.656 135.4 99.5812 135.4 97.9687V84.8C135.4 83.4563 136.3 82.1125 137.65 82.1125C139 82.1125 139.9 83.4563 139.9 84.8V97.9687ZM139.9 121.619C139.9 122.962 139 124.306 137.65 124.306C136.3 124.306 135.4 123.231 135.4 121.619V108.45C135.4 106.837 136.3 105.762 137.65 105.762C139 105.762 139.9 106.837 139.9 108.45V121.619ZM140.125 142.312C140.125 143.925 139.225 145 137.875 145C136.75 145 135.625 143.925 135.625 142.312V132.1C135.625 130.756 136.525 129.412 137.875 129.412C139 129.412 140.125 130.756 140.125 132.1V142.312ZM123.025 80.5H90.85C89.725 80.5 88.6 81.575 88.6 83.1875C88.6 84.8 89.725 85.875 90.85 85.875H122.8C124.15 85.875 125.05 84.8 125.05 83.1875C125.05 81.575 124.15 80.5 123.025 80.5ZM122.575 99.85H90.625C89.5 99.85 88.375 100.925 88.375 102.537C88.375 103.881 89.5 105.225 90.625 105.225H122.575C123.7 105.225 124.825 103.881 124.825 102.537C124.825 100.925 123.925 99.85 122.575 99.85ZM123.475 117.856H91.525C90.175 117.856 89.275 119.2 89.275 120.544C89.275 122.156 90.175 123.231 91.525 123.231H123.475C124.825 123.231 125.725 122.156 125.725 120.544C125.725 119.2 124.825 117.856 123.475 117.856Z" fill="#195874"/>
</svg>
