<svg width="171" height="136" viewBox="0 0 171 136" fill="none" xmlns="http://www.w3.org/2000/svg">
<rect width="171" height="136" fill="white"/>
<path fill-rule="evenodd" clip-rule="evenodd" d="M141.588 44.2002C144.233 44.2002 146.376 46.3313 146.376 48.9602C146.376 51.5891 144.233 53.7202 141.588 53.7202H114.228C116.873 53.7202 119.016 55.8513 119.016 58.4802C119.016 61.1091 116.873 63.2402 114.228 63.2402H129.276C131.921 63.2402 134.064 65.3713 134.064 68.0002C134.064 70.6291 131.921 72.7602 129.276 72.7602H122.317C118.983 72.7602 116.28 74.8913 116.28 77.5202C116.28 79.2728 117.648 80.8594 120.384 82.2802C123.029 82.2802 125.172 84.4113 125.172 87.0402C125.172 89.6691 123.029 91.8002 120.384 91.8002H63.6124C60.9681 91.8002 58.8244 89.6691 58.8244 87.0402C58.8244 84.4113 60.9681 82.2802 63.6124 82.2802H36.9364C34.2921 82.2802 32.1484 80.1491 32.1484 77.5202C32.1484 74.8913 34.2921 72.7602 36.9364 72.7602H64.2964C66.9408 72.7602 69.0844 70.6291 69.0844 68.0002C69.0844 65.3713 66.9408 63.2402 64.2964 63.2402H47.1964C44.5521 63.2402 42.4084 61.1091 42.4084 58.4802C42.4084 55.8513 44.5521 53.7202 47.1964 53.7202H74.5564C71.9121 53.7202 69.7684 51.5891 69.7684 48.9602C69.7684 46.3313 71.9121 44.2002 74.5564 44.2002H141.588ZM141.588 63.2402C144.233 63.2402 146.376 65.3713 146.376 68.0002C146.376 70.6291 144.233 72.7602 141.588 72.7602C138.944 72.7602 136.8 70.6291 136.8 68.0002C136.8 65.3713 138.944 63.2402 141.588 63.2402Z" fill="#E8EEF1"/>
<path fill-rule="evenodd" clip-rule="evenodd" d="M105.079 43.5191L111.47 89.677L112.044 94.3077C112.229 95.7996 111.164 97.1565 109.665 97.3387L69.6395 102.203C68.1408 102.385 66.7758 101.323 66.5907 99.8315L60.3933 49.8744C60.3008 49.1285 60.8332 48.45 61.5826 48.3589C61.5873 48.3583 61.592 48.3578 61.5968 48.3572L64.9175 47.9888M67.6079 47.7141L70.745 47.3656Z" fill="white"/>
<path d="M105.926 43.403C105.861 42.9353 105.43 42.608 104.962 42.6721C104.494 42.7362 104.167 43.1674 104.232 43.6351L105.926 43.403ZM111.47 89.677L112.318 89.5729L112.317 89.561L111.47 89.677ZM112.044 94.3077L112.893 94.2037L112.044 94.3077ZM109.665 97.3387L109.77 98.1873L109.665 97.3387ZM69.6395 102.203L69.7438 103.052L69.6395 102.203ZM66.5907 99.8315L67.4394 99.7275L66.5907 99.8315ZM60.3933 49.8744L59.5446 49.9784L60.3933 49.8744ZM61.5968 48.3572L61.6923 49.2069L61.5968 48.3572ZM65.013 48.8384C65.4823 48.7863 65.82 48.3637 65.7673 47.8945C65.7145 47.4252 65.2913 47.087 64.822 47.1391L65.013 48.8384ZM67.5124 46.8644C67.043 46.9166 66.7054 47.3392 66.7582 47.8085C66.8109 48.2777 67.2342 48.6158 67.7035 48.5637L67.5124 46.8644ZM70.8406 48.2153C71.31 48.1631 71.6476 47.7405 71.5948 47.2712C71.542 46.802 71.1188 46.4639 70.6495 46.516L70.8406 48.2153ZM104.232 43.6351L110.622 89.7931L112.317 89.561L105.926 43.403L104.232 43.6351ZM110.621 89.7811L111.195 94.4118L112.893 94.2037L112.318 89.5729L110.621 89.7811ZM111.195 94.4118C111.322 95.4312 110.594 96.3645 109.561 96.4901L109.77 98.1873C111.734 97.9486 113.136 96.1679 112.893 94.2037L111.195 94.4118ZM109.561 96.4901L69.5351 101.354L69.7438 103.052L109.77 98.1873L109.561 96.4901ZM69.5351 101.354C68.5014 101.48 67.5659 100.748 67.4394 99.7275L65.7421 99.9356C65.9857 101.899 67.7802 103.29 69.7438 103.052L69.5351 101.354ZM67.4394 99.7275L61.2419 49.7703L59.5446 49.9784L65.7421 99.9356L67.4394 99.7275ZM61.2419 49.7703C61.208 49.4968 61.4032 49.242 61.6869 49.2075L61.4782 47.5103C60.2632 47.6579 59.3935 48.7601 59.5446 49.9784L61.2419 49.7703ZM61.6869 49.2075C61.6887 49.2073 61.6905 49.2071 61.6923 49.2069L61.5013 47.5076C61.4936 47.5085 61.4859 47.5094 61.4782 47.5103L61.6869 49.2075ZM61.6923 49.2069L65.013 48.8384L64.822 47.1391L61.5013 47.5076L61.6923 49.2069ZM67.7035 48.5637L70.8406 48.2153L70.6495 46.516L67.5124 46.8644L67.7035 48.5637Z" fill="#195874"/>
<path fill-rule="evenodd" clip-rule="evenodd" d="M103.38 46.4224L109.139 88.2314L109.657 92.4257C109.824 93.777 108.87 95.0053 107.527 95.1692L71.657 99.5478C70.3139 99.7117 69.0899 98.7492 68.923 97.398L63.3493 52.2698C63.2567 51.52 63.7896 50.8379 64.5396 50.7464L68.977 50.2047" fill="#E8EEF1"/>
<path d="M75.6989 34.855H106.864C107.361 34.855 107.838 35.0515 108.19 35.4016L117.381 44.5327C117.736 44.8858 117.936 45.3661 117.936 45.8671V88.384C117.936 89.4228 117.094 90.265 116.055 90.265H75.6989C74.66 90.265 73.8179 89.4228 73.8179 88.384V36.736C73.8179 35.6972 74.66 34.855 75.6989 34.855Z" fill="white" stroke="#195874" stroke-width="1.71"/>
<path d="M107.164 35.6338V43.5199C107.164 44.6465 108.083 45.5599 109.216 45.5599H114.643" stroke="#195874" stroke-width="1.71" stroke-linecap="round" stroke-linejoin="round"/>
<path d="M80.7129 80.2405H98.4969M80.7129 45.5605H98.4969H80.7129ZM80.7129 53.7205H110.125H80.7129ZM80.7129 62.5605H110.125H80.7129ZM80.7129 71.4005H110.125H80.7129Z" stroke="#A1BBC6" stroke-width="1.71" stroke-linecap="round" stroke-linejoin="round"/>
</svg>
