<svg width="70" height="22" viewBox="0 0 70 22" fill="none" xmlns="http://www.w3.org/2000/svg">
<path d="M6.12317 6.18393H7.77917L9.42317 12.4239H9.44717L11.3192 6.18393H12.8792L14.7152 12.4239H14.7392L16.4192 6.18393H18.0272L15.5432 14.6799H14.0792L12.0872 8.30793H12.0632L10.0712 14.6799H8.60717L6.12317 6.18393ZM19.0339 6.18393H21.9859C22.3859 6.18393 22.7739 6.22793 23.1499 6.31593C23.5259 6.39593 23.8579 6.53193 24.1459 6.72393C24.4419 6.91593 24.6779 7.16793 24.8539 7.47993C25.0299 7.79193 25.1179 8.17193 25.1179 8.61993C25.1179 9.23593 24.9419 9.73993 24.5899 10.1319C24.2459 10.5159 23.7739 10.7759 23.1739 10.9119L25.4419 14.6799H23.6179L21.6499 11.0799H20.5459V14.6799H19.0339V6.18393ZM21.7819 9.84393C21.9979 9.84393 22.2139 9.82793 22.4299 9.79593C22.6459 9.76393 22.8379 9.70393 23.0059 9.61593C23.1819 9.52793 23.3259 9.40393 23.4379 9.24393C23.5499 9.07593 23.6059 8.86393 23.6059 8.60793C23.6059 8.37593 23.5539 8.18793 23.4499 8.04393C23.3459 7.89193 23.2139 7.77193 23.0539 7.68393C22.8939 7.59593 22.7099 7.53593 22.5019 7.50393C22.3019 7.47193 22.1059 7.45593 21.9139 7.45593H20.5459V9.84393H21.7819ZM26.5807 6.18393H28.0927V9.85593H28.1287L31.6807 6.18393H33.7207L29.7487 10.1079L33.9847 14.6799H31.8607L28.1287 10.4199H28.0927V14.6799H26.5807V6.18393ZM36.985 12.3399H34.105V11.1159H36.985V12.3399ZM38.4046 6.18393H43.8886V7.50393H39.9166V9.83193H43.6606V11.1039H39.9166V14.6799H38.4046V6.18393ZM45.2834 6.18393H46.7954V13.3359H50.4074V14.6799H45.2834V6.18393ZM49.974 6.18393H51.63L53.274 12.4239H53.298L55.17 6.18393H56.73L58.566 12.4239H58.59L60.27 6.18393H61.878L59.394 14.6799H57.93L55.938 8.30793H55.914L53.922 14.6799H52.458L49.974 6.18393Z" fill="#1B5773"/>
<path fill-rule="evenodd" clip-rule="evenodd" d="M67.348 0.679932H62.0001V2.97193H67.348V8.31993H69.64V2.97193H69.6401V0.679932H69.64H67.348Z" fill="#B10239"/>
<path fill-rule="evenodd" clip-rule="evenodd" d="M2.292 21.3199H7.64014V19.0279H2.292V13.6799H-1.43051e-06V21.3199H0.000137806H2.292Z" fill="#B10239"/>
</svg>
